<?xml version="1.0" encoding="utf-8"?>
<!-- Generator: Adobe Illustrator 27.5.0, SVG Export Plug-In . SVG Version: 6.00 Build 0)  -->
<svg version="1.1" id="Layer_1" xmlns="http://www.w3.org/2000/svg" xmlns:xlink="http://www.w3.org/1999/xlink" x="0px" y="0px"
	 viewBox="0 0 824 730" style="enable-background:new 0 0 824 730;" xml:space="preserve">
<style type="text/css">
	.st0{fill:#237546;}
	.st1{fill:#020202;}
	.st2{fill:#0B0C0B;}
	.st3{fill:#040504;}
	.st4{fill:#070505;}
	.st5{fill:none;stroke:#000000;stroke-miterlimit:10;}
	.st6{fill:#1F7589;}
</style>
<g>
	<g>
		<g>
			<path class="st0" d="M409.74,118.02c-11.14-4.49-27.26-31.99-27.88-52.06c-0.51-16.31,9.51-33.22,22.67-28.19
				c14.51,5.54,31.22,37.13,31.84,57.94c0.14,4.82,0.72,24.03-16.86,24.19C416.94,119.91,413.81,119.66,409.74,118.02z"/>
			<path class="st1" d="M377.95,34.77l1.28,74.08c0.03,1.61,2,2.94,4.41,2.97h0c2.41,0.03,4.34-1.26,4.31-2.87l-1.28-74.08
				c-0.03-1.61-2-2.94-4.41-2.97l0,0C379.85,31.87,377.92,33.15,377.95,34.77z"/>
			<path d="M437,120.47c-2.69-0.13-4.8-2.2-4.7-4.66c1.9-44.78-26.5-77.98-51.63-76.3c-23.76,1.59-48.05,34.59-45.65,76.42
				c0.16,2.76-2.39,5.01-5.41,4.75c-0.5-0.04-1-0.08-1.5-0.13c-2.42-0.2-4.33-1.97-4.51-4.17c-4.04-51.68,27.55-92.99,58.68-93.39
				c31.5-0.41,64.02,41.03,60.05,93.3c-0.19,2.46-2.53,4.31-5.23,4.17C437.07,120.48,437.03,120.47,437,120.47z"/>
		</g>
		<path class="st2" d="M380.84,381.13c-5.34-3.68,9.11-21.2,26.58-33.11c17.75-12.09,44.14-22.15,49.46-18.34
			c5.52,3.96-11.4,23.01-31.75,35.65C409.67,374.95,386.03,384.71,380.84,381.13z"/>
		<path d="M384.16,519.48c-5.74-3.57,9.8-20.58,28.58-32.14c19.09-11.74,47.48-21.51,53.2-17.8c5.93,3.84-12.27,22.34-34.14,34.61
			C415.17,513.48,389.75,522.95,384.16,519.48z"/>
		<path class="st3" d="M393.75,459.14c5.13-3.29-8.75-18.96-25.51-29.61c-17.04-10.82-42.38-19.81-47.49-16.4
			c-5.3,3.54,10.95,20.58,30.48,31.89C366.07,453.61,388.76,462.34,393.75,459.14z"/>
		<path class="st4" d="M394.55,553.39h-14.89c-0.16,0-0.28-0.13-0.28-0.28V224.36c0-0.16,0.13-0.28,0.28-0.28l14.89,0
			c0.16,0,0.28,0.13,0.28,0.28v328.75C394.83,553.27,394.7,553.39,394.55,553.39z"/>
		<g>
			<path class="st0" d="M430.77,231.63c-14.48-7.28-3.52-41.29,25.81-63.84c23.84-18.33,68.72-35.19,86.26-26.9
				c19.35,9.14,3.27,47.83-27.18,71.21c-7.06,5.42-35.16,27-69.04,23.6C441.67,235.21,436.07,234.29,430.77,231.63z"/>
			<path class="st5" d="M396.27,227.15c-0.18-10.48,2.08-35.53,32.77-59.12c41.22-31.68,104.63-38.39,121.13-39.85
				c4.28,17.59,6.17,48.33-24.97,76.34c-23.52,21.15-74.32,48.14-106.27,39.9C407.14,241.38,400.34,234.16,396.27,227.15z"/>
			<path class="st1" d="M540.36,130.49l-139.77,98.04c-3.04,2.13-3.52,5.78-1.08,8.15l0,0c2.45,2.37,6.9,2.55,9.94,0.42
				l139.77-98.04c3.04-2.13,3.52-5.78,1.08-8.15l0,0C547.85,128.54,543.4,128.36,540.36,130.49z"/>
			<path class="st1" d="M528.31,194.51l-83.34,4.73c-1.81,0.1-4.01,2.12-4.91,4.5l0,0c-0.9,2.38-0.15,4.23,1.66,4.13l83.34-4.73
				c1.81-0.1,4.01-2.12,4.91-4.5v0C530.87,196.26,530.12,194.41,528.31,194.51z"/>
			<path class="st1" d="M475.09,146.17L464,185.72c-0.24,0.86,1.74,1.45,4.42,1.32h0c2.68-0.13,5.05-0.94,5.3-1.8l11.09-39.55
				c0.24-0.86-1.74-1.45-4.42-1.32l0,0C477.71,144.5,475.33,145.31,475.09,146.17z"/>
		</g>
		<g>
			<path class="st0" d="M382.78,235.98c-12.96,6.23-60.91-8.56-89.2-30.67c-23-17.98-40.48-47.32-25.56-55.01
				c16.44-8.47,70.44,10.36,99.76,33.32c6.8,5.32,33.86,26.51,23.49,44.55C389.75,230.81,387.52,233.7,382.78,235.98z"/>
			<path class="st5" d="M372.14,247.76c-15.62,0.52-53.02-0.07-89.09-19.9c-48.44-26.64-60.31-69.19-62.97-80.28
				c26.09-3.55,71.87-5.98,114.53,13.99c32.22,15.08,73.95,48.36,62.61,70.25C393.03,239.89,382.48,244.75,372.14,247.76z"/>
			<path class="st1" d="M223.81,154.11l150.26,90.68c3.27,1.97,8.72,2.16,12.18,0.42l0,0c3.45-1.74,3.6-4.75,0.33-6.73
				l-150.26-90.68c-3.27-1.97-8.72-2.16-12.18-0.42h0C220.69,149.13,220.54,152.14,223.81,154.11z"/>
			<path class="st1" d="M319.6,159.84l9.5,56.09c0.21,1.22,3.27,2.63,6.85,3.14l0,0c3.58,0.52,6.31-0.06,6.1-1.28l-9.5-56.09
				c-0.21-1.22-3.27-2.63-6.85-3.14l0,0C322.13,158.05,319.4,158.62,319.6,159.84z"/>
			<path class="st1" d="M249.11,197.59l59.28,6c1.29,0.13,2.11-1.23,1.83-3.03l0,0c-0.28-1.81-1.55-3.38-2.84-3.51l-59.28-6
				c-1.29-0.13-2.11,1.23-1.83,3.03l0,0C246.55,195.89,247.82,197.46,249.11,197.59z"/>
		</g>
	</g>
	<g>
		<path class="st6" d="M683.94,513.4c-15.39,14.35-49.14,25.99-81.78,37.23c-27.78,9.57-54.39,18.75-71.42,29.71
			c-5.25,3.38-9.6,6.91-12.79,10.7c-15.28,18.16-19.72,60.55-20.76,92.58c-0.26,7.94-6.58,14.74-16.19,17.58
			c-20.88,6.16-45.05,9.25-70.78,8.57c0.59-32,1.34-89.95-0.1-126.21c-0.8-19.26,5.75-37.99,19.37-53.4
			c2.63-2.98,5.52-5.83,8.67-8.53c18.82-16.13,41.1-23.4,64.12-29.51c17.75-4.73,36.46-7.74,54.54-10.65
			c7.94-1.27,15.43-2.49,22.49-3.78c8.43-1.57,14.81-3,20.09-4.47c6.04-1.66,13.67-4.71,21.02-7.74c0.03,0,0.07-0.02,0.1-0.03
			l6.4-2.63c12.44-5.17,26.57-11.01,38.87-14.37c13.02-3.53,21.85-3.75,26.25-0.62c2.2,1.59,3.1,3.43,2.73,5.88
			c-1.71,12.56-33.36,32.39-54.37,40.53l-67.5,26.09c-1.34,0.51-2.15,1.5-2.31,2.57c-0.11,0.72,0.06,1.48,0.6,2.16
			c1.29,1.75,4.12,2.48,6.37,1.6l67.5-26.09c19.43-7.52,56.72-28.66,59.04-45.74c0.49-3.49-0.52-6.7-2.93-9.43
			c4.55-4.41,15.68-15.02,28.97-26.56c0.04-0.04,0.08-0.11,0.15-0.15c52.28-45.19,64.65-41.17,65.89-40.56
			c0.12,0.06,0.47,0.23,0.66,1.08C800.89,395.47,733.26,467.48,683.94,513.4z"/>
		<path class="st6" d="M753.55,329.49c-0.54-0.56-2.11-1.85-5.27-1.84c-3.35,0.01-12.44,1.69-24.58,17.02l-0.91,1.16
			c-5.5,7.17-33.85,60.97-50.85,93.76c9.15-1.57,16.43-1.25,21.98,0.96c4.73-4.57,15.5-14.84,28.36-26
			c1.64-4.08,11.09-27.39,20.13-47.83C749.41,350.95,757.22,333.31,753.55,329.49z"/>
		<path class="st6" d="M634.75,387.03c-5.34,6.24-32.41,53.04-48.83,81.91c3.72-0.8,6.94-1.58,9.79-2.37
			c5.17-1.43,11.92-4.08,18.57-6.82c7.06-13.66,34.76-67.02,48.06-90.17C654.55,370.83,644.37,375.79,634.75,387.03z"/>
		<path class="st6" d="M708.87,342.57c-3.83,0.05-17.48,1.69-32.1,20.72c-0.75,0.98-1.96,2.93-2.81,4.32
			c-9.85,16.28-35.05,64.46-46.63,86.75c10.72-4.41,22.26-8.98,32.94-12.05c5.78-11.18,44-84.93,53.4-98.95
			C712.35,342.84,710.74,342.54,708.87,342.57z"/>
	</g>
	<g>
		<g>
			<path class="st6" d="M146.58,370.01c-10.61-18.72-22.66-21.76-26.1-22.24c-1.68-0.24-3.17-0.16-4.43,0.16
				c6.61,13.73,31.09,84.02,34.78,94.68c9.2,3.98,18.97,9.4,28.02,14.58c-7.41-21.2-23.7-67.41-30.33-83
				C147.95,372.86,147.13,370.97,146.58,370.01z"/>
			<path class="st6" d="M106.87,347.98c-8.89-15.16-16.84-17.71-19.85-18.1c-2.83-0.38-4.43,0.6-4.98,1.04
				c-3.82,2.99,0.85,19.67,4.97,34.38l0.06,0.22c5.43,19.45,10.77,41.27,11.7,45.11c10.07,11.47,18.39,21.9,22.03,26.54
				c5.3-1.34,11.88-0.79,19.9,1.68c-10.9-31.3-29.2-82.7-33.2-89.77L106.87,347.98z"/>
			<path class="st6" d="M158.72,377.31c8.85,22.24,26.73,73.48,31.16,86.21c5.62,3.21,11.33,6.36,15.79,8.24
				c2.45,1.04,5.24,2.11,8.49,3.25c-10.91-27.72-29-72.71-32.96-78.91C174.06,384.95,165.55,379.34,158.72,377.31z"/>
			<path class="st6" d="M382.18,711.45c-5.55,0.36-11.15,0.55-16.87,0.55c-33.1,0-63.62-6.4-87.95-17.14
				c-8.26-3.65-13.08-10.44-12.27-17.57c3.35-29.5,4.86-67.67-6.15-85.21c-2.36-3.75-5.8-7.42-10.07-11.05
				c-13.86-11.77-36.56-23.05-60.27-34.82c-27.86-13.83-56.65-28.14-68.58-42.75c-38.21-46.78-89.4-119-83.57-133.08
				c0.28-0.74,0.63-0.85,0.74-0.89c1.2-0.4,12.83-2.59,53.84,43.87c0.03,0.06,0.06,0.13,0.11,0.17
				c10.41,11.85,19.01,22.63,22.51,27.1c-2.53,2.16-3.87,4.92-3.9,8.1c-0.2,15.54,30.5,38.76,46.98,47.73l57.22,31.13
				c0.77,0.4,1.62,0.61,2.5,0.61c1.31,0,2.59-0.47,3.44-1.31c1.39-1.4,0.97-3.39-0.91-4.43l-57.22-31.13
				c-17.81-9.71-43.62-31.11-43.51-42.54c0.03-2.23,1.08-3.77,3.27-4.94c4.38-2.29,12.29-1.08,23.53,3.58
				c10.61,4.43,22.54,11.3,33.06,17.35l4.58,2.63c0.51,0.57,1.22,1,2.08,1.21c5.83,3.33,11.81,6.62,16.67,8.65
				c4.55,1.93,10.1,3.94,17.47,6.32c6.17,1.97,12.75,3.92,19.72,5.98c15.88,4.69,32.3,9.54,47.63,15.82
				c21.11,8.63,44.36,18.13,60.58,42.41c5.43,8.14,10.1,17.94,13.6,29.92c0.14,0.45,0.26,0.93,0.4,1.42
				C367.53,603.11,377.49,675.63,382.18,711.45z"/>
		</g>
	</g>
</g>
</svg>
